<!DOCTYPE svg PUBLIC "-//W3C//DTD SVG 1.1//EN" "http://www.w3.org/Graphics/SVG/1.1/DTD/svg11.dtd">
<!-- Uploaded to: SVG Repo, www.svgrepo.com, Transformed by: SVG Repo Mixer Tools -->
<svg fill="#ffffff" height="800px" width="800px" version="1.1" id="Capa_1" xmlns="http://www.w3.org/2000/svg" xmlns:xlink="http://www.w3.org/1999/xlink" viewBox="0 0 511 511" xml:space="preserve">
<g id="SVGRepo_bgCarrier" stroke-width="0"/>
<g id="SVGRepo_tracerCarrier" stroke-linecap="round" stroke-linejoin="round"/>
<g id="SVGRepo_iconCarrier"> <g> <path d="M503.5,384H495V247.5c0-57.07-46.43-103.5-103.5-103.5c-30.364,0-57.138,11.978-77.446,34.645l-30.891,30.744 c-0.675,0.48-1.266,1.069-1.749,1.741L255.5,236.919l-25.913-25.789c-0.484-0.673-1.075-1.262-1.75-1.742l-29.951-29.808 c-0.624-1.014-1.479-1.865-2.496-2.484l-5.428-5.402c-0.028-0.027-0.058-0.05-0.086-0.077c-0.033-0.032-0.061-0.066-0.095-0.097 C170.604,153.773,145.644,144,119.5,144C62.43,144,16,190.43,16,247.5V384H7.5c-4.142,0-7.5,3.358-7.5,7.5s3.358,7.5,7.5,7.5h496 c4.142,0,7.5-3.358,7.5-7.5S507.642,384,503.5,384z M480,247.5V384h-25V185.923C470.464,201.866,480,223.588,480,247.5z M440,384 h-17V164.799c6.096,2.33,11.869,5.314,17.235,8.868c-0.148,0.588-0.235,1.2-0.235,1.834V384z M408,160.549V384h-17V159.5 c0-0.167-0.014-0.33-0.025-0.493c0.175-0.001,0.349-0.007,0.525-0.007C397.138,159,402.652,159.536,408,160.549z M376,384h-17 V167.5c0-0.84-0.144-1.644-0.399-2.398c5.562-2.198,11.373-3.81,17.399-4.823V384z M344,172.583V384h-17V186.732 C332.217,181.212,337.905,176.489,344,172.583z M88,346.093V384H71v-45.091C76.401,341.787,82.085,344.199,88,346.093z M103,349.679c5.375,0.865,10.885,1.321,16.5,1.321c0.167,0,0.333-0.005,0.5-0.006V384h-17V349.679z M135,349.836 c5.794-0.872,11.478-2.229,17-4.053V384h-17V349.836z M167,339.473c5.979-3.092,11.674-6.776,17-11.026V384h-17V339.473z M199,314.311l17-16.919V384h-17V314.311z M231,282.464l17-16.919V384h-17V282.464z M263,250.617l17-16.919V384h-17V250.617z M295,218.77l17-16.919V384h-17V218.77z M56,185.923V279.5c0,4.142,3.358,7.5,7.5,7.5s7.5-3.358,7.5-7.5v-104 c0-0.634-0.087-1.246-0.235-1.834c5.366-3.554,11.14-6.538,17.235-8.868V303.5c0,4.142,3.358,7.5,7.5,7.5s7.5-3.358,7.5-7.5 V160.549c5.348-1.013,10.862-1.549,16.5-1.549c0.175,0,0.349,0.011,0.525,0.012c-0.01,0.162-0.025,0.323-0.025,0.488v152 c0,4.142,3.358,7.5,7.5,7.5s7.5-3.358,7.5-7.5V160.375c5.949,1.053,11.752,2.702,17.328,4.929 c-0.212,0.695-0.328,1.432-0.328,2.196v128c0,4.142,3.358,7.5,7.5,7.5s7.5-3.358,7.5-7.5V172.828 c4.417,2.816,8.613,6.029,12.523,9.64l4.477,4.456V271.5c0,4.142,3.358,7.5,7.5,7.5s7.5-3.358,7.5-7.5v-69.648l17,16.919v20.73 c0,4.142,3.358,7.5,7.5,7.5s7.5-3.358,7.5-7.5v-5.802l13.868,13.801l-65.39,65.077C163.098,327.683,141.803,336,119.5,336 C70.701,336,31,296.299,31,247.5C31,223.588,40.536,201.866,56,185.923z M31,301.119c6.57,10.804,15.064,20.312,25,28.055V384H31 V301.119z"/> <path d="M337.187,138.906c1.062,0,2.143-0.228,3.169-0.707c15.909-7.432,33.116-11.2,51.144-11.2 c13.397,0,26.561,2.193,39.125,6.518c3.915,1.351,8.185-0.733,9.533-4.65c1.349-3.917-0.733-8.185-4.65-9.533 C421.369,114.468,406.563,112,391.5,112c-20.237,0-39.581,4.242-57.492,12.609c-3.753,1.753-5.374,6.217-3.621,9.97 C331.661,137.305,334.364,138.906,337.187,138.906z"/> <path d="M296.298,169.25c2.044,0,4.081-0.831,5.561-2.465c4.247-4.688,8.847-9.059,13.671-12.988 c3.212-2.616,3.695-7.34,1.079-10.551c-2.616-3.212-7.34-3.696-10.551-1.079c-5.41,4.406-10.562,9.301-15.315,14.549 c-2.781,3.07-2.546,7.813,0.524,10.593C292.702,168.609,294.503,169.25,296.298,169.25z"/> </g> </g>
</svg>